<svg width="221" height="70" viewBox="0 0 221 70" fill="none" xmlns="http://www.w3.org/2000/svg">
<path d="M220 35C220 39.3723 217.201 43.7162 211.717 47.8231C206.25 51.9169 198.276 55.646 188.333 58.7954C168.459 65.0905 140.94 69 110.5 69C80.0597 69 52.5413 65.0905 32.6667 58.7954C22.7235 55.646 14.7497 51.9169 9.28305 47.8231C3.79878 43.7162 1 39.3723 1 35C1 30.6277 3.79878 26.2838 9.28305 22.1769C14.7497 18.0831 22.7235 14.354 32.6667 11.2046C52.5413 4.90945 80.0597 1 110.5 1C140.94 1 168.459 4.90945 188.333 11.2046C198.276 14.354 206.25 18.0831 211.717 22.1769C217.201 26.2838 220 30.6277 220 35Z" fill="#ACE1AF"/>
<path d="M220 35C220 39.3723 217.201 43.7162 211.717 47.8231C206.25 51.9169 198.276 55.646 188.333 58.7954C168.459 65.0905 140.94 69 110.5 69C80.0597 69 52.5413 65.0905 32.6667 58.7954C22.7235 55.646 14.7497 51.9169 9.28305 47.8231C3.79878 43.7162 1 39.3723 1 35C1 30.6277 3.79878 26.2838 9.28305 22.1769C14.7497 18.0831 22.7235 14.354 32.6667 11.2046C52.5413 4.90945 80.0597 1 110.5 1C140.94 1 168.459 4.90945 188.333 11.2046C198.276 14.354 206.25 18.0831 211.717 22.1769C217.201 26.2838 220 30.6277 220 35Z" stroke="url(#paint0_linear)" stroke-width="2"/>
<path d="M220 35C220 39.3723 217.201 43.7162 211.717 47.8231C206.25 51.9169 198.276 55.646 188.333 58.7954C168.459 65.0905 140.94 69 110.5 69C80.0597 69 52.5413 65.0905 32.6667 58.7954C22.7235 55.646 14.7497 51.9169 9.28305 47.8231C3.79878 43.7162 1 39.3723 1 35C1 30.6277 3.79878 26.2838 9.28305 22.1769C14.7497 18.0831 22.7235 14.354 32.6667 11.2046C52.5413 4.90945 80.0597 1 110.5 1C140.94 1 168.459 4.90945 188.333 11.2046C198.276 14.354 206.25 18.0831 211.717 22.1769C217.201 26.2838 220 30.6277 220 35Z" stroke="url(#paint1_linear)" stroke-width="2"/>
<path d="M220 35C220 39.3723 217.201 43.7162 211.717 47.8231C206.25 51.9169 198.276 55.646 188.333 58.7954C168.459 65.0905 140.94 69 110.5 69C80.0597 69 52.5413 65.0905 32.6667 58.7954C22.7235 55.646 14.7497 51.9169 9.28305 47.8231C3.79878 43.7162 1 39.3723 1 35C1 30.6277 3.79878 26.2838 9.28305 22.1769C14.7497 18.0831 22.7235 14.354 32.6667 11.2046C52.5413 4.90945 80.0597 1 110.5 1C140.94 1 168.459 4.90945 188.333 11.2046C198.276 14.354 206.25 18.0831 211.717 22.1769C217.201 26.2838 220 30.6277 220 35Z" stroke="url(#paint2_linear)" stroke-width="2"/>
<path d="M92.0872 15.508C92.2072 15.484 92.3752 15.472 92.5912 15.472C92.9992 15.472 93.2992 15.556 93.4912 15.724C93.7072 15.868 93.8152 16.06 93.8152 16.3C93.8152 16.66 93.6232 17.02 93.2392 17.38C92.8552 17.716 92.3872 17.932 91.8352 18.028L91.6912 18.208C91.4752 18.424 91.2232 18.796 90.9352 19.324C90.4792 20.164 90.0232 21.352 89.5672 22.888C88.9672 25.048 88.4392 27.964 87.9832 31.636C87.6952 34.036 87.4312 36.712 87.1912 39.664C87.1672 39.832 87.1552 40.096 87.1552 40.456C87.1072 41.224 87.0352 41.86 86.9392 42.364C86.8432 42.844 86.6632 43.252 86.3992 43.588C86.1832 43.828 85.7992 44.08 85.2472 44.344C84.7192 44.584 84.2272 44.704 83.7712 44.704C83.1712 44.704 82.8112 44.464 82.6912 43.984C82.1632 42.208 81.5272 39.616 80.7832 36.208C80.6632 35.68 80.4832 34.9 80.2432 33.868C80.0032 32.836 79.7872 31.936 79.5952 31.168L78.6232 27.46C78.4792 28.972 78.2992 30.496 78.0832 32.032C77.6992 34.792 77.2792 37.096 76.8232 38.944C76.3912 40.792 75.6832 42.448 74.6992 43.912C74.4352 44.32 74.0632 44.656 73.5832 44.92C73.1272 45.16 72.6592 45.28 72.1792 45.28C71.8432 45.28 71.5312 45.22 71.2432 45.1C70.9552 44.956 70.8112 44.764 70.8112 44.524C70.8112 44.356 70.8592 44.212 70.9552 44.092C71.8432 42.508 72.5032 40.804 72.9352 38.98C73.3912 37.132 73.8112 34.852 74.1952 32.14C74.7472 28.084 75.0232 24.34 75.0232 20.908C75.0232 19.516 74.9992 18.472 74.9512 17.776C74.9272 17.32 75.2032 16.924 75.7792 16.588C76.3552 16.228 76.9552 16.048 77.5792 16.048C78.0592 16.048 78.4192 16.168 78.6592 16.408C79.2112 16.96 79.6312 17.584 79.9192 18.28C80.2312 18.952 80.6152 19.96 81.0712 21.304C81.6712 23.032 82.4272 25.648 83.3392 29.152C83.5072 29.752 83.7352 30.652 84.0232 31.852C84.1192 31.108 84.2872 29.968 84.5272 28.432C84.9112 26.128 85.3192 24.16 85.7512 22.528C86.2072 20.896 86.9512 19.384 87.9832 17.992C89.0152 16.576 90.3832 15.748 92.0872 15.508ZM115.902 16.408C116.454 16.504 116.73 16.708 116.73 17.02C116.73 17.26 116.562 17.536 116.226 17.848C115.89 18.136 115.494 18.376 115.038 18.568C114.606 18.76 114.234 18.832 113.922 18.784C112.77 18.616 111.546 18.532 110.25 18.532C107.97 18.532 105.366 18.856 102.438 19.504C101.55 22.48 100.674 25.744 99.8097 29.296C102.594 28.672 105.042 28.36 107.154 28.36C107.754 28.36 108.21 28.372 108.522 28.396C109.026 28.42 109.278 28.648 109.278 29.08C109.278 29.56 109.014 29.944 108.486 30.232C107.982 30.52 107.454 30.676 106.902 30.7C104.334 30.916 101.778 31.276 99.2337 31.78C98.5377 34.708 97.8777 37.9 97.2537 41.356C99.8937 41.236 102.282 41.176 104.418 41.176C107.25 41.176 109.854 41.308 112.23 41.572C112.734 41.644 112.986 41.884 112.986 42.292C112.986 42.508 112.914 42.748 112.77 43.012C112.53 43.372 112.158 43.636 111.654 43.804C111.174 43.948 110.694 43.996 110.214 43.948C108.822 43.828 107.154 43.768 105.21 43.768C103.602 43.768 101.982 43.804 100.35 43.876C98.7177 43.924 97.4937 43.948 96.6777 43.948C96.4377 44.284 96.0297 44.572 95.4537 44.812C94.9017 45.052 94.3857 45.172 93.9057 45.172C93.5457 45.172 93.2697 45.1 93.0777 44.956C92.8857 44.812 92.8137 44.608 92.8617 44.344C92.8617 44.272 92.8857 44.14 92.9337 43.948H92.8617C92.0697 43.948 91.6737 43.744 91.6737 43.336C91.6737 43.072 91.8417 42.784 92.1777 42.472C92.5137 42.16 92.8977 41.908 93.3297 41.716C94.0737 37.66 94.8417 33.916 95.6337 30.484C96.4257 27.028 97.3497 23.704 98.4057 20.512L98.1177 20.548C97.8297 20.548 97.6017 20.476 97.4337 20.332C97.2897 20.188 97.2177 20.008 97.2177 19.792C97.2177 19.504 97.3377 19.216 97.5777 18.928C97.8177 18.64 98.1417 18.424 98.5497 18.28L99.2337 18.064L99.4137 17.596C99.5337 17.236 99.8577 16.936 100.386 16.696C100.914 16.432 101.442 16.3 101.97 16.3C102.666 16.3 103.05 16.528 103.122 16.984C105.978 16.312 108.63 15.976 111.078 15.976C112.71 15.976 114.318 16.12 115.902 16.408ZM139.688 14.68C140.24 14.896 140.516 15.184 140.516 15.544C140.516 15.76 140.42 15.964 140.228 16.156C136.22 20.404 131.876 25.3 127.196 30.844C128.084 32.284 129.068 33.76 130.148 35.272C131.228 36.784 131.864 37.684 132.056 37.972L133.676 40.276C133.796 40.468 133.856 40.636 133.856 40.78C133.856 41.236 133.532 41.656 132.884 42.04C132.26 42.424 131.648 42.616 131.048 42.616C130.568 42.616 130.244 42.484 130.076 42.22L128.564 40.06C126.98 37.852 125.612 35.884 124.46 34.156C121.58 37.636 119.036 40.816 116.828 43.696C116.612 43.96 116.264 44.176 115.784 44.344C115.328 44.512 114.872 44.596 114.416 44.596C114.056 44.596 113.756 44.536 113.516 44.416C113.3 44.296 113.192 44.128 113.192 43.912C113.192 43.72 113.3 43.48 113.516 43.192C116.54 39.232 119.636 35.344 122.804 31.528L122.084 30.34C120.884 28.228 119.864 26.128 119.024 24.04L118.628 23.104C118.34 22.456 118.112 21.892 117.944 21.412C117.776 20.908 117.692 20.428 117.692 19.972C117.692 19.516 117.776 19.084 117.944 18.676C118.088 18.292 118.448 17.98 119.024 17.74C119.6 17.476 120.164 17.344 120.716 17.344C121.508 17.344 121.904 17.596 121.904 18.1C121.904 18.196 121.868 18.34 121.796 18.532C121.724 18.7 121.688 18.892 121.688 19.108C121.688 19.588 121.82 20.164 122.084 20.836C122.348 21.508 122.696 22.276 123.128 23.14L123.56 24.004C124.088 25.18 124.772 26.56 125.612 28.144C129.596 23.512 133.4 19.36 137.024 15.688C137.312 15.4 137.66 15.148 138.068 14.932C138.5 14.716 138.896 14.608 139.256 14.608C139.352 14.608 139.496 14.632 139.688 14.68ZM160.173 16.588C160.701 16.612 160.965 16.78 160.965 17.092C160.965 17.452 160.677 17.86 160.101 18.316C159.549 18.748 159.057 18.964 158.625 18.964C156.561 18.964 154.269 19.024 151.749 19.144C149.709 27.328 148.293 34.912 147.501 41.896C147.837 41.92 148.113 42.004 148.329 42.148C148.569 42.268 148.689 42.436 148.689 42.652C148.689 42.94 148.473 43.252 148.041 43.588L146.637 44.668C146.469 44.836 146.145 44.992 145.665 45.136C145.209 45.28 144.777 45.352 144.369 45.352C143.625 45.352 143.289 45.052 143.361 44.452C144.201 36.556 145.737 28.252 147.969 19.54L147.933 19.396C145.197 19.636 142.641 19.9 140.265 20.188C139.905 20.236 139.617 20.188 139.401 20.044C139.185 19.876 139.089 19.624 139.113 19.288C139.137 18.952 139.341 18.676 139.725 18.46C140.133 18.244 140.565 18.076 141.021 17.956C143.325 17.284 145.893 16.828 148.725 16.588L148.941 15.976C149.037 15.64 149.373 15.352 149.949 15.112C150.525 14.848 151.089 14.716 151.641 14.716C152.001 14.716 152.277 14.788 152.469 14.932C152.685 15.076 152.757 15.28 152.685 15.544L152.469 16.372L154.161 16.336C155.913 16.336 157.917 16.42 160.173 16.588Z" fill="black"/>
<defs>
<linearGradient id="paint0_linear" x1="66.5" y1="54.5" x2="110.5" y2="70" gradientUnits="userSpaceOnUse">
<stop stop-color="#FFB21E" stop-opacity="0.955968"/>
<stop offset="1" stop-color="#ACE1AF" stop-opacity="0"/>
</linearGradient>
<linearGradient id="paint1_linear" x1="110.5" y1="0" x2="110.5" y2="70" gradientUnits="userSpaceOnUse">
<stop stop-color="#F2994A"/>
<stop offset="1" stop-color="white" stop-opacity="0"/>
</linearGradient>
<linearGradient id="paint2_linear" x1="204.5" y1="35" x2="110.5" y2="70" gradientUnits="userSpaceOnUse">
<stop stop-color="#FFB118" stop-opacity="0.979143"/>
<stop offset="1" stop-color="white" stop-opacity="0"/>
</linearGradient>
</defs>
</svg>
