<svg width="1338" height="128" viewBox="0 0 1338 128" fill="none" xmlns="http://www.w3.org/2000/svg">
<rect width="1338" height="128" fill="#FF996E"/>
<path d="M191.48 29.52H211.688L210.92 33.168H201.08L199.208 41.952H207.416L206.648 45.648H198.44L195.368 60H185L191.48 29.52ZM237.262 41.136C238.894 40.336 240.558 39.76 242.254 39.408C243.982 39.024 245.902 38.832 248.014 38.832C250.062 38.832 251.758 38.992 253.102 39.312C254.446 39.632 255.518 40.096 256.318 40.704C257.118 41.312 257.678 42.032 257.998 42.864C258.318 43.696 258.478 44.64 258.478 45.696C258.478 46.304 258.43 46.96 258.334 47.664C258.27 48.368 258.19 48.96 258.094 49.44L255.838 60H248.11L247.246 56.928H246.958C245.934 58.048 244.734 58.912 243.358 59.52C242.014 60.096 240.67 60.384 239.326 60.384C238.558 60.384 237.806 60.272 237.07 60.048C236.334 59.824 235.678 59.488 235.102 59.04C234.526 58.56 234.062 57.968 233.71 57.264C233.358 56.528 233.182 55.648 233.182 54.624C233.182 52.96 233.63 51.648 234.526 50.688C235.454 49.696 236.654 48.96 238.126 48.48C239.63 47.968 241.31 47.648 243.166 47.52C245.054 47.392 246.942 47.328 248.83 47.328C248.894 47.008 248.974 46.56 249.07 45.984C249.166 45.376 249.214 44.848 249.214 44.4C249.214 43.824 249.054 43.296 248.734 42.816C248.446 42.304 247.822 42.048 246.862 42.048C245.742 42.048 244.91 42.384 244.366 43.056C243.854 43.696 243.518 44.48 243.358 45.408H236.35L237.262 41.136ZM248.302 49.584H247.438C246.51 49.584 245.71 49.712 245.038 49.968C244.398 50.192 243.87 50.496 243.454 50.88C243.07 51.264 242.782 51.696 242.59 52.176C242.398 52.656 242.302 53.136 242.302 53.616C242.302 54.384 242.494 54.96 242.878 55.344C243.294 55.728 243.774 55.92 244.318 55.92C244.99 55.92 245.646 55.68 246.286 55.2C246.958 54.72 247.374 54.08 247.534 53.28L248.302 49.584ZM288.149 39.36C289.333 39.104 290.373 38.816 291.269 38.496C292.165 38.176 292.981 37.776 293.717 37.296C294.485 36.816 295.205 36.224 295.877 35.52C296.581 34.816 297.333 33.952 298.133 32.928H303.077L301.685 39.36H305.429L304.805 42.576H301.013L299.045 51.936C298.885 52.672 298.757 53.328 298.661 53.904C298.565 54.48 298.517 54.928 298.517 55.248C298.517 55.888 298.741 56.288 299.189 56.448C299.669 56.608 300.549 56.688 301.829 56.688L301.109 60C300.885 60.064 300.533 60.112 300.053 60.144C299.605 60.176 299.093 60.208 298.517 60.24C297.973 60.304 297.397 60.336 296.789 60.336C296.213 60.368 295.701 60.384 295.253 60.384C294.453 60.384 293.669 60.32 292.901 60.192C292.133 60.096 291.445 59.888 290.837 59.568C290.229 59.216 289.733 58.72 289.349 58.08C288.997 57.44 288.821 56.576 288.821 55.488C288.821 55.104 288.837 54.624 288.869 54.048C288.933 53.472 289.045 52.832 289.205 52.128L291.221 42.576H287.477L288.149 39.36ZM343.185 39.36L344.625 53.472L352.209 39.36H357.297L345.729 60C344.577 62.016 343.409 63.568 342.225 64.656C341.041 65.744 339.745 66.544 338.337 67.056C336.961 67.568 335.425 67.856 333.729 67.92C332.065 68.016 330.161 68.064 328.017 68.064L328.737 64.752C329.793 64.752 330.769 64.736 331.665 64.704C332.593 64.672 333.329 64.576 333.873 64.416C334.609 64.224 335.137 63.872 335.457 63.36C335.777 62.88 335.937 62.16 335.937 61.2C335.937 60.56 335.873 59.824 335.745 58.992C335.649 58.16 335.537 57.28 335.409 56.352L333.057 39.36H343.185ZM385.322 41.136C386.954 40.336 388.618 39.76 390.314 39.408C392.042 39.024 393.962 38.832 396.074 38.832C398.122 38.832 399.818 38.992 401.162 39.312C402.506 39.632 403.578 40.096 404.378 40.704C405.178 41.312 405.738 42.032 406.058 42.864C406.378 43.696 406.538 44.64 406.538 45.696C406.538 46.304 406.49 46.96 406.394 47.664C406.33 48.368 406.25 48.96 406.154 49.44L403.898 60H396.17L395.306 56.928H395.018C393.994 58.048 392.794 58.912 391.418 59.52C390.074 60.096 388.73 60.384 387.386 60.384C386.618 60.384 385.866 60.272 385.13 60.048C384.394 59.824 383.738 59.488 383.162 59.04C382.586 58.56 382.122 57.968 381.77 57.264C381.418 56.528 381.242 55.648 381.242 54.624C381.242 52.96 381.69 51.648 382.586 50.688C383.514 49.696 384.714 48.96 386.186 48.48C387.69 47.968 389.37 47.648 391.226 47.52C393.114 47.392 395.002 47.328 396.89 47.328C396.954 47.008 397.034 46.56 397.13 45.984C397.226 45.376 397.274 44.848 397.274 44.4C397.274 43.824 397.114 43.296 396.794 42.816C396.506 42.304 395.882 42.048 394.922 42.048C393.802 42.048 392.97 42.384 392.426 43.056C391.914 43.696 391.578 44.48 391.418 45.408H384.41L385.322 41.136ZM396.362 49.584H395.498C394.57 49.584 393.77 49.712 393.098 49.968C392.458 50.192 391.93 50.496 391.514 50.88C391.13 51.264 390.842 51.696 390.65 52.176C390.458 52.656 390.362 53.136 390.362 53.616C390.362 54.384 390.554 54.96 390.938 55.344C391.354 55.728 391.834 55.92 392.378 55.92C393.05 55.92 393.706 55.68 394.346 55.2C395.018 54.72 395.434 54.08 395.594 53.28L396.362 49.584ZM497.409 57.408C496.609 57.792 495.777 58.176 494.913 58.56C494.081 58.912 493.185 59.232 492.225 59.52C491.265 59.776 490.209 59.984 489.057 60.144C487.937 60.304 486.705 60.384 485.361 60.384C481.073 60.384 477.761 59.424 475.425 57.504C473.121 55.584 471.969 52.384 471.969 47.904C471.969 45.312 472.369 42.88 473.169 40.608C473.969 38.304 475.153 36.304 476.721 34.608C478.289 32.88 480.225 31.52 482.529 30.528C484.833 29.536 487.473 29.04 490.449 29.04C491.857 29.04 493.137 29.136 494.289 29.328C495.473 29.52 496.529 29.776 497.457 30.096C498.417 30.384 499.265 30.704 500.001 31.056C500.769 31.408 501.457 31.744 502.065 32.064L500.337 40.992H491.697C491.729 40.672 491.761 40.256 491.793 39.744C491.857 39.232 491.905 38.72 491.937 38.208C491.969 37.664 492.001 37.136 492.033 36.624C492.065 36.112 492.081 35.68 492.081 35.328C492.081 35.072 492.065 34.784 492.033 34.464C492.001 34.112 491.921 33.776 491.793 33.456C491.665 33.136 491.457 32.88 491.169 32.688C490.913 32.464 490.561 32.352 490.113 32.352C489.281 32.352 488.513 32.704 487.809 33.408C487.137 34.08 486.529 34.992 485.985 36.144C485.441 37.264 484.961 38.544 484.545 39.984C484.129 41.424 483.777 42.896 483.489 44.4C483.233 45.872 483.025 47.328 482.865 48.768C482.737 50.208 482.673 51.472 482.673 52.56C482.673 52.88 482.689 53.28 482.721 53.76C482.753 54.24 482.849 54.704 483.009 55.152C483.169 55.6 483.409 55.984 483.729 56.304C484.081 56.624 484.545 56.784 485.121 56.784C486.113 56.784 487.073 56.176 488.001 54.96C488.929 53.712 489.745 51.504 490.449 48.336H499.329L497.409 57.408ZM530.85 41.136C532.482 40.336 534.146 39.76 535.842 39.408C537.57 39.024 539.49 38.832 541.602 38.832C543.65 38.832 545.346 38.992 546.69 39.312C548.034 39.632 549.106 40.096 549.906 40.704C550.706 41.312 551.266 42.032 551.586 42.864C551.906 43.696 552.066 44.64 552.066 45.696C552.066 46.304 552.018 46.96 551.922 47.664C551.858 48.368 551.778 48.96 551.682 49.44L549.426 60H541.698L540.834 56.928H540.546C539.522 58.048 538.322 58.912 536.946 59.52C535.602 60.096 534.258 60.384 532.914 60.384C532.146 60.384 531.394 60.272 530.658 60.048C529.922 59.824 529.266 59.488 528.69 59.04C528.114 58.56 527.65 57.968 527.298 57.264C526.946 56.528 526.77 55.648 526.77 54.624C526.77 52.96 527.218 51.648 528.114 50.688C529.042 49.696 530.242 48.96 531.714 48.48C533.218 47.968 534.898 47.648 536.754 47.52C538.642 47.392 540.53 47.328 542.418 47.328C542.482 47.008 542.562 46.56 542.658 45.984C542.754 45.376 542.802 44.848 542.802 44.4C542.802 43.824 542.642 43.296 542.322 42.816C542.034 42.304 541.41 42.048 540.45 42.048C539.33 42.048 538.498 42.384 537.954 43.056C537.442 43.696 537.106 44.48 536.946 45.408H529.938L530.85 41.136ZM541.89 49.584H541.026C540.098 49.584 539.298 49.712 538.626 49.968C537.986 50.192 537.458 50.496 537.042 50.88C536.658 51.264 536.37 51.696 536.178 52.176C535.986 52.656 535.89 53.136 535.89 53.616C535.89 54.384 536.082 54.96 536.466 55.344C536.882 55.728 537.362 55.92 537.906 55.92C538.578 55.92 539.234 55.68 539.874 55.2C540.546 54.72 540.962 54.08 541.122 53.28L541.89 49.584ZM581.736 39.36C582.92 39.104 583.96 38.816 584.856 38.496C585.752 38.176 586.568 37.776 587.304 37.296C588.072 36.816 588.792 36.224 589.464 35.52C590.168 34.816 590.92 33.952 591.72 32.928H596.664L595.272 39.36H599.016L598.392 42.576H594.6L592.632 51.936C592.472 52.672 592.344 53.328 592.248 53.904C592.152 54.48 592.104 54.928 592.104 55.248C592.104 55.888 592.328 56.288 592.776 56.448C593.256 56.608 594.136 56.688 595.416 56.688L594.696 60C594.472 60.064 594.12 60.112 593.64 60.144C593.192 60.176 592.68 60.208 592.104 60.24C591.56 60.304 590.984 60.336 590.376 60.336C589.8 60.368 589.288 60.384 588.84 60.384C588.04 60.384 587.256 60.32 586.488 60.192C585.72 60.096 585.032 59.888 584.424 59.568C583.816 59.216 583.32 58.72 582.936 58.08C582.584 57.44 582.408 56.576 582.408 55.488C582.408 55.104 582.424 54.624 582.456 54.048C582.52 53.472 582.632 52.832 582.792 52.128L584.808 42.576H581.064L581.736 39.36ZM660.82 39.36H670.996L672.676 53.472L678.484 39.36H687.652L689.284 53.472L695.092 39.36H700.18L690.628 60H680.596L678.82 49.536L673.972 60H663.94L660.82 39.36ZM735.708 50.352C735.58 51.056 735.484 51.728 735.42 52.368C735.388 53.008 735.372 53.584 735.372 54.096C735.372 54.384 735.388 54.704 735.42 55.056C735.452 55.408 735.516 55.744 735.612 56.064C735.74 56.352 735.9 56.608 736.092 56.832C736.316 57.024 736.62 57.12 737.004 57.12C737.292 57.12 737.612 57.024 737.964 56.832C738.348 56.64 738.716 56.368 739.068 56.016C739.452 55.664 739.804 55.232 740.124 54.72C740.476 54.208 740.748 53.632 740.94 52.992H748.812L747.564 58.128C746.924 58.544 746.188 58.896 745.356 59.184C744.524 59.472 743.644 59.712 742.716 59.904C741.788 60.064 740.844 60.176 739.884 60.24C738.924 60.336 738.012 60.384 737.148 60.384C735.548 60.384 734.06 60.24 732.684 59.952C731.308 59.664 730.108 59.168 729.084 58.464C728.06 57.76 727.244 56.832 726.636 55.68C726.06 54.496 725.772 53.04 725.772 51.312C725.772 49.744 726.012 48.208 726.492 46.704C727.004 45.2 727.836 43.872 728.988 42.72C730.172 41.536 731.74 40.592 733.692 39.888C735.676 39.184 738.14 38.832 741.084 38.832C744.284 38.832 746.684 39.328 748.284 40.32C749.916 41.312 750.732 42.864 750.732 44.976C750.732 45.84 750.604 46.784 750.348 47.808C750.092 48.8 749.708 49.648 749.196 50.352H735.708ZM742.092 44.64C742.092 43.648 741.932 42.976 741.612 42.624C741.292 42.272 740.908 42.096 740.46 42.096C739.948 42.096 739.468 42.272 739.02 42.624C738.604 42.944 738.22 43.392 737.868 43.968C737.516 44.512 737.196 45.152 736.908 45.888C736.62 46.592 736.38 47.344 736.188 48.144H741.66C741.724 47.76 741.788 47.36 741.852 46.944C741.916 46.592 741.964 46.208 741.996 45.792C742.06 45.376 742.092 44.992 742.092 44.64ZM785.19 60H777.414L784.23 27.744H794.07L790.95 42.432H791.286C792.342 41.216 793.526 40.352 794.838 39.84C796.182 39.296 797.51 39.024 798.822 39.024C799.942 39.024 800.87 39.2 801.606 39.552C802.374 39.872 802.982 40.32 803.43 40.896C803.878 41.472 804.198 42.16 804.39 42.96C804.582 43.76 804.678 44.608 804.678 45.504C804.678 45.952 804.646 46.624 804.582 47.52C804.518 48.416 804.374 49.424 804.15 50.544C803.926 51.632 803.606 52.768 803.19 53.952C802.774 55.104 802.214 56.16 801.51 57.12C800.838 58.08 799.974 58.864 798.918 59.472C797.894 60.08 796.662 60.384 795.222 60.384C794.358 60.384 793.51 60.288 792.678 60.096C791.878 59.904 791.142 59.648 790.47 59.328C789.83 59.008 789.254 58.64 788.742 58.224C788.262 57.776 787.91 57.328 787.686 56.88H787.35L785.19 60ZM790.614 55.728C791.382 55.728 792.022 55.328 792.534 54.528C793.046 53.696 793.462 52.736 793.782 51.648C794.102 50.528 794.326 49.424 794.454 48.336C794.614 47.216 794.694 46.384 794.694 45.84C794.694 45.2 794.582 44.672 794.358 44.256C794.166 43.84 793.798 43.632 793.254 43.632C792.614 43.632 792.022 43.872 791.478 44.352C790.934 44.8 790.534 45.184 790.278 45.504L788.406 54.096C788.63 54.48 788.918 54.848 789.27 55.2C789.654 55.552 790.102 55.728 790.614 55.728Z" fill="black"/>
</svg>
